<svg width="12" height="12" viewBox="0 0 12 12" fill="none" xmlns="http://www.w3.org/2000/svg">
<path d="M3.12229 11.616C3.12229 11.49 3.10829 11.434 3.05229 11.434L2.73029 11.588C2.73029 11.518 2.68829 11.476 2.61829 11.448L2.50629 11.434C2.40829 11.434 2.36629 11.448 2.22629 11.532C2.18429 11.448 2.12829 11.35 2.08629 11.266C1.72229 10.566 1.34429 9.516 1.17629 9.054C1.09229 8.816 1.00829 8.326 0.910289 7.584C1.02229 7.654 1.10629 7.682 1.14829 7.682C1.20429 7.682 1.27429 7.584 1.33029 7.388C1.35829 7.43 1.41429 7.444 1.48429 7.444C1.52629 7.444 1.58229 7.43 1.61029 7.388L1.83429 7.052L2.08629 7.136H2.10029C2.12829 7.136 2.17029 7.094 2.24029 7.052C2.31029 7.01 2.36629 6.982 2.40829 6.982L2.45029 6.996C2.67429 7.108 2.82829 7.304 2.89829 7.612C3.06629 8.326 3.22029 8.676 3.40229 8.676C3.55629 8.676 3.76629 8.494 3.99029 8.144C4.21429 7.794 4.43829 7.318 4.69029 6.744C4.70429 6.856 4.71829 6.912 4.74629 6.912C4.83029 6.912 5.04029 6.422 5.55829 5.596C6.32829 4.35 8.23229 1.956 8.72229 1.62C9.08629 1.368 9.36629 1.13 9.56229 0.92C9.53429 1.06 9.50629 1.158 9.50629 1.2C9.50629 1.242 9.53429 1.256 9.56229 1.256L9.95429 1.06V1.116C9.95429 1.186 9.96829 1.228 10.0103 1.228C10.0663 1.228 10.2903 1.004 10.3183 0.92L10.2903 1.116L10.7663 0.836L10.6543 1.088C10.7943 0.99 10.9063 0.933999 10.9763 0.933999C11.0463 0.933999 11.0883 1.046 11.0883 1.116C11.0883 1.228 10.9903 1.382 10.8363 1.578C10.6683 1.802 10.2483 2.236 8.98829 3.678C8.44229 4.294 6.02029 7.584 5.55829 8.368L4.69029 9.838C4.31229 10.468 4.07429 10.874 3.94829 11.028C3.82229 11.182 3.66829 11.336 3.48629 11.476L3.36029 11.406L3.24829 11.476L3.12229 11.616Z" fill="white"/>
</svg>
