<svg width="1391" height="860" viewBox="0 0 1391 860" fill="none" xmlns="http://www.w3.org/2000/svg">
<g filter="url(#filter0_f_197_703)">
<ellipse cx="696.19" cy="808.657" rx="624.432" ry="6.8998" fill="black"/>
</g>
<path d="M136.236 28C136.236 13.0883 148.325 1 163.236 1H1233.28C1248.2 1 1260.28 13.0883 1260.28 28V760.498C1260.28 762.155 1258.94 763.498 1257.28 763.498H139.236C137.579 763.498 136.236 762.155 136.236 760.498V28Z" fill="#1A202C" stroke="#4A5568" stroke-width="2"/>
<path d="M142.136 28.8998C142.136 16.7495 151.985 6.89978 164.136 6.89978H1232.38C1244.53 6.89978 1254.38 16.7495 1254.38 28.8998V735.519H142.136V28.8998Z" fill="black"/>
<rect x="164.216" y="42.7788" width="1062.57" height="662.381" fill="white"/>
<path d="M601.91 361.335L606.128 374.597H606.29L610.518 361.335H614.609L608.592 378.79H603.836L597.81 361.335H601.91ZM616.641 378.79V365.699H620.272V378.79H616.641ZM618.465 364.011C617.925 364.011 617.462 363.832 617.076 363.474C616.695 363.111 616.505 362.676 616.505 362.17C616.505 361.67 616.695 361.241 617.076 360.883C617.462 360.52 617.925 360.338 618.465 360.338C619.005 360.338 619.465 360.52 619.846 360.883C620.232 361.241 620.425 361.67 620.425 362.17C620.425 362.676 620.232 363.111 619.846 363.474C619.465 363.832 619.005 364.011 618.465 364.011ZM628.004 379.003C627.01 379.003 626.109 378.747 625.302 378.236C624.501 377.719 623.865 376.96 623.393 375.96C622.927 374.955 622.695 373.722 622.695 372.261C622.695 370.761 622.936 369.514 623.419 368.52C623.902 367.52 624.544 366.773 625.345 366.278C626.152 365.778 627.035 365.528 627.996 365.528C628.729 365.528 629.339 365.653 629.828 365.903C630.322 366.148 630.72 366.455 631.021 366.824C631.328 367.187 631.561 367.545 631.72 367.898H631.831V361.335H635.453V378.79H631.874V376.693H631.72C631.55 377.057 631.308 377.418 630.996 377.776C630.689 378.128 630.288 378.42 629.794 378.653C629.305 378.886 628.709 379.003 628.004 379.003ZM629.155 376.114C629.74 376.114 630.234 375.955 630.638 375.636C631.047 375.312 631.359 374.861 631.575 374.281C631.797 373.702 631.908 373.023 631.908 372.244C631.908 371.466 631.8 370.79 631.584 370.216C631.368 369.642 631.055 369.199 630.646 368.886C630.237 368.574 629.74 368.418 629.155 368.418C628.558 368.418 628.055 368.58 627.646 368.903C627.237 369.227 626.927 369.676 626.717 370.25C626.507 370.824 626.402 371.489 626.402 372.244C626.402 373.006 626.507 373.679 626.717 374.264C626.933 374.844 627.243 375.298 627.646 375.628C628.055 375.952 628.558 376.114 629.155 376.114ZM644.404 379.045C643.057 379.045 641.898 378.773 640.927 378.227C639.961 377.676 639.217 376.898 638.694 375.892C638.171 374.881 637.91 373.685 637.91 372.304C637.91 370.957 638.171 369.776 638.694 368.758C639.217 367.741 639.952 366.949 640.901 366.381C641.856 365.812 642.975 365.528 644.259 365.528C645.123 365.528 645.927 365.668 646.671 365.946C647.421 366.219 648.075 366.631 648.631 367.182C649.194 367.733 649.631 368.426 649.944 369.261C650.256 370.091 650.413 371.062 650.413 372.176V373.173H639.359V370.923H646.995C646.995 370.401 646.881 369.937 646.654 369.534C646.427 369.131 646.111 368.815 645.708 368.588C645.31 368.355 644.847 368.239 644.319 368.239C643.768 368.239 643.279 368.366 642.853 368.622C642.432 368.872 642.103 369.21 641.864 369.636C641.626 370.057 641.503 370.526 641.498 371.043V373.182C641.498 373.83 641.617 374.389 641.856 374.861C642.1 375.332 642.444 375.696 642.887 375.952C643.33 376.207 643.856 376.335 644.464 376.335C644.867 376.335 645.236 376.278 645.572 376.165C645.907 376.051 646.194 375.881 646.432 375.653C646.671 375.426 646.853 375.148 646.978 374.818L650.336 375.04C650.165 375.847 649.816 376.551 649.288 377.153C648.765 377.75 648.089 378.216 647.259 378.551C646.435 378.881 645.484 379.045 644.404 379.045ZM658.697 379.045C657.373 379.045 656.228 378.764 655.262 378.202C654.302 377.633 653.56 376.844 653.038 375.832C652.515 374.815 652.253 373.636 652.253 372.295C652.253 370.943 652.515 369.761 653.038 368.75C653.56 367.733 654.302 366.943 655.262 366.381C656.228 365.812 657.373 365.528 658.697 365.528C660.021 365.528 661.163 365.812 662.123 366.381C663.089 366.943 663.833 367.733 664.356 368.75C664.878 369.761 665.14 370.943 665.14 372.295C665.14 373.636 664.878 374.815 664.356 375.832C663.833 376.844 663.089 377.633 662.123 378.202C661.163 378.764 660.021 379.045 658.697 379.045ZM658.714 376.233C659.316 376.233 659.819 376.062 660.222 375.722C660.626 375.375 660.93 374.903 661.134 374.307C661.344 373.71 661.45 373.031 661.45 372.27C661.45 371.508 661.344 370.83 661.134 370.233C660.93 369.636 660.626 369.165 660.222 368.818C659.819 368.472 659.316 368.298 658.714 368.298C658.106 368.298 657.594 368.472 657.18 368.818C656.771 369.165 656.461 369.636 656.251 370.233C656.046 370.83 655.944 371.508 655.944 372.27C655.944 373.031 656.046 373.71 656.251 374.307C656.461 374.903 656.771 375.375 657.18 375.722C657.594 376.062 658.106 376.233 658.714 376.233ZM684.697 366.977C684.578 366.562 684.41 366.196 684.195 365.878C683.979 365.554 683.714 365.281 683.402 365.06C683.095 364.832 682.743 364.659 682.345 364.54C681.953 364.42 681.518 364.361 681.041 364.361C680.149 364.361 679.365 364.582 678.689 365.026C678.018 365.469 677.496 366.114 677.121 366.96C676.746 367.801 676.558 368.83 676.558 370.045C676.558 371.261 676.743 372.295 677.112 373.148C677.481 374 678.004 374.651 678.68 375.099C679.356 375.543 680.155 375.764 681.075 375.764C681.91 375.764 682.624 375.616 683.214 375.321C683.811 375.02 684.266 374.597 684.578 374.051C684.896 373.506 685.055 372.861 685.055 372.116L685.805 372.227H681.305V369.449H688.609V371.648C688.609 373.182 688.285 374.5 687.638 375.602C686.99 376.699 686.098 377.545 684.962 378.142C683.825 378.733 682.524 379.028 681.058 379.028C679.422 379.028 677.984 378.668 676.746 377.946C675.507 377.219 674.541 376.187 673.848 374.852C673.16 373.511 672.817 371.92 672.817 370.08C672.817 368.665 673.021 367.403 673.43 366.295C673.845 365.182 674.425 364.239 675.169 363.466C675.913 362.693 676.78 362.105 677.768 361.702C678.757 361.298 679.828 361.097 680.981 361.097C681.97 361.097 682.891 361.241 683.743 361.531C684.595 361.815 685.351 362.219 686.01 362.741C686.675 363.264 687.217 363.886 687.638 364.608C688.058 365.324 688.328 366.114 688.447 366.977H684.697ZM697.228 379.045C695.904 379.045 694.759 378.764 693.793 378.202C692.833 377.633 692.092 376.844 691.569 375.832C691.046 374.815 690.785 373.636 690.785 372.295C690.785 370.943 691.046 369.761 691.569 368.75C692.092 367.733 692.833 366.943 693.793 366.381C694.759 365.812 695.904 365.528 697.228 365.528C698.552 365.528 699.694 365.812 700.654 366.381C701.62 366.943 702.364 367.733 702.887 368.75C703.41 369.761 703.671 370.943 703.671 372.295C703.671 373.636 703.41 374.815 702.887 375.832C702.364 376.844 701.62 377.633 700.654 378.202C699.694 378.764 698.552 379.045 697.228 379.045ZM697.245 376.233C697.847 376.233 698.35 376.062 698.753 375.722C699.157 375.375 699.461 374.903 699.665 374.307C699.876 373.71 699.981 373.031 699.981 372.27C699.981 371.508 699.876 370.83 699.665 370.233C699.461 369.636 699.157 369.165 698.753 368.818C698.35 368.472 697.847 368.298 697.245 368.298C696.637 368.298 696.126 368.472 695.711 368.818C695.302 369.165 694.992 369.636 694.782 370.233C694.577 370.83 694.475 371.508 694.475 372.27C694.475 373.031 694.577 373.71 694.782 374.307C694.992 374.903 695.302 375.375 695.711 375.722C696.126 376.062 696.637 376.233 697.245 376.233ZM711.998 379.045C710.651 379.045 709.492 378.773 708.521 378.227C707.555 377.676 706.81 376.898 706.288 375.892C705.765 374.881 705.503 373.685 705.503 372.304C705.503 370.957 705.765 369.776 706.288 368.758C706.81 367.741 707.546 366.949 708.495 366.381C709.45 365.812 710.569 365.528 711.853 365.528C712.717 365.528 713.521 365.668 714.265 365.946C715.015 366.219 715.668 366.631 716.225 367.182C716.788 367.733 717.225 368.426 717.538 369.261C717.85 370.091 718.006 371.062 718.006 372.176V373.173H706.952V370.923H714.589C714.589 370.401 714.475 369.937 714.248 369.534C714.021 369.131 713.705 368.815 713.302 368.588C712.904 368.355 712.441 368.239 711.913 368.239C711.361 368.239 710.873 368.366 710.447 368.622C710.026 368.872 709.697 369.21 709.458 369.636C709.219 370.057 709.097 370.526 709.092 371.043V373.182C709.092 373.83 709.211 374.389 709.45 374.861C709.694 375.332 710.038 375.696 710.481 375.952C710.924 376.207 711.45 376.335 712.057 376.335C712.461 376.335 712.83 376.278 713.165 376.165C713.501 376.051 713.788 375.881 714.026 375.653C714.265 375.426 714.447 375.148 714.572 374.818L717.93 375.04C717.759 375.847 717.41 376.551 716.881 377.153C716.359 377.75 715.682 378.216 714.853 378.551C714.029 378.881 713.077 379.045 711.998 379.045ZM731.268 369.432L727.944 369.636C727.887 369.352 727.765 369.097 727.577 368.869C727.39 368.636 727.143 368.452 726.836 368.315C726.535 368.173 726.174 368.102 725.753 368.102C725.191 368.102 724.717 368.222 724.33 368.46C723.944 368.693 723.751 369.006 723.751 369.398C723.751 369.71 723.876 369.974 724.126 370.19C724.376 370.406 724.805 370.58 725.413 370.71L727.782 371.187C729.055 371.449 730.003 371.869 730.628 372.449C731.253 373.028 731.566 373.79 731.566 374.733C731.566 375.591 731.313 376.344 730.807 376.991C730.307 377.639 729.62 378.145 728.745 378.508C727.876 378.866 726.873 379.045 725.736 379.045C724.003 379.045 722.623 378.685 721.594 377.963C720.572 377.236 719.972 376.247 719.796 374.997L723.367 374.81C723.475 375.338 723.736 375.741 724.151 376.02C724.566 376.293 725.097 376.429 725.745 376.429C726.381 376.429 726.893 376.307 727.279 376.062C727.671 375.812 727.87 375.491 727.876 375.099C727.87 374.77 727.731 374.5 727.458 374.29C727.185 374.074 726.765 373.909 726.197 373.795L723.93 373.344C722.651 373.088 721.7 372.645 721.075 372.014C720.455 371.383 720.146 370.58 720.146 369.602C720.146 368.761 720.373 368.037 720.827 367.429C721.288 366.821 721.932 366.352 722.762 366.023C723.597 365.693 724.575 365.528 725.694 365.528C727.347 365.528 728.648 365.878 729.597 366.577C730.552 367.276 731.109 368.227 731.268 369.432ZM739.475 378.79V361.335H743.165V368.537H750.657V361.335H754.339V378.79H750.657V371.58H743.165V378.79H739.475ZM763.279 379.045C761.932 379.045 760.773 378.773 759.802 378.227C758.836 377.676 758.092 376.898 757.569 375.892C757.046 374.881 756.785 373.685 756.785 372.304C756.785 370.957 757.046 369.776 757.569 368.758C758.092 367.741 758.827 366.949 759.776 366.381C760.731 365.812 761.85 365.528 763.134 365.528C763.998 365.528 764.802 365.668 765.546 365.946C766.296 366.219 766.95 366.631 767.506 367.182C768.069 367.733 768.506 368.426 768.819 369.261C769.131 370.091 769.288 371.062 769.288 372.176V373.173H758.234V370.923H765.87C765.87 370.401 765.756 369.937 765.529 369.534C765.302 369.131 764.986 368.815 764.583 368.588C764.185 368.355 763.722 368.239 763.194 368.239C762.643 368.239 762.154 368.366 761.728 368.622C761.307 368.872 760.978 369.21 760.739 369.636C760.501 370.057 760.378 370.526 760.373 371.043V373.182C760.373 373.83 760.492 374.389 760.731 374.861C760.975 375.332 761.319 375.696 761.762 375.952C762.205 376.207 762.731 376.335 763.339 376.335C763.742 376.335 764.111 376.278 764.447 376.165C764.782 376.051 765.069 375.881 765.307 375.653C765.546 375.426 765.728 375.148 765.853 374.818L769.211 375.04C769.04 375.847 768.691 376.551 768.163 377.153C767.64 377.75 766.964 378.216 766.134 378.551C765.31 378.881 764.359 379.045 763.279 379.045ZM771.657 378.79V365.699H775.177V367.983H775.313C775.552 367.17 775.952 366.557 776.515 366.142C777.077 365.722 777.725 365.511 778.458 365.511C778.64 365.511 778.836 365.523 779.046 365.545C779.256 365.568 779.441 365.599 779.6 365.639V368.861C779.43 368.81 779.194 368.764 778.893 368.724C778.592 368.685 778.316 368.665 778.066 368.665C777.532 368.665 777.055 368.781 776.634 369.014C776.219 369.241 775.89 369.56 775.646 369.969C775.407 370.378 775.288 370.849 775.288 371.383V378.79H771.657ZM786.834 379.045C785.487 379.045 784.328 378.773 783.356 378.227C782.391 377.676 781.646 376.898 781.124 375.892C780.601 374.881 780.339 373.685 780.339 372.304C780.339 370.957 780.601 369.776 781.124 368.758C781.646 367.741 782.382 366.949 783.331 366.381C784.285 365.812 785.405 365.528 786.689 365.528C787.552 365.528 788.356 365.668 789.101 365.946C789.851 366.219 790.504 366.631 791.061 367.182C791.624 367.733 792.061 368.426 792.374 369.261C792.686 370.091 792.842 371.062 792.842 372.176V373.173H781.788V370.923H789.425C789.425 370.401 789.311 369.937 789.084 369.534C788.856 369.131 788.541 368.815 788.138 368.588C787.74 368.355 787.277 368.239 786.749 368.239C786.197 368.239 785.709 368.366 785.283 368.622C784.862 368.872 784.533 369.21 784.294 369.636C784.055 370.057 783.933 370.526 783.927 371.043V373.182C783.927 373.83 784.047 374.389 784.285 374.861C784.53 375.332 784.874 375.696 785.317 375.952C785.76 376.207 786.285 376.335 786.893 376.335C787.297 376.335 787.666 376.278 788.001 376.165C788.337 376.051 788.624 375.881 788.862 375.653C789.101 375.426 789.283 375.148 789.408 374.818L792.766 375.04C792.595 375.847 792.246 376.551 791.717 377.153C791.195 377.75 790.518 378.216 789.689 378.551C788.865 378.881 787.913 379.045 786.834 379.045Z" fill="#2D3748"/>
<path d="M0 767C0 765.895 0.895431 765 2 765H1389C1390.1 765 1391 765.895 1391 767V786.226H0V767Z" fill="#A3ACB1"/>
<path d="M0 767C0 765.895 0.895431 765 2 765H1389C1390.1 765 1391 765.895 1391 767V786.226H0V767Z" fill="url(#paint0_linear_197_703)"/>
<path d="M0 786.226H1391L1342.61 794.566C1320.17 798.433 1297.45 800.377 1274.68 800.377H112.161C87.1209 800.377 62.1361 798.026 37.5355 793.354L0 786.226Z" fill="#647279"/>
<path d="M0 786.226H1391L1342.61 794.566C1320.17 798.433 1297.45 800.377 1274.68 800.377H112.161C87.1209 800.377 62.1361 798.026 37.5355 793.354L0 786.226Z" fill="url(#paint1_linear_197_703)"/>
<path fill-rule="evenodd" clip-rule="evenodd" d="M581.008 765C581.718 774.219 590.694 781.509 601.662 781.509H790.717C801.685 781.509 810.661 774.219 811.371 765H581.008Z" fill="#96A1A8"/>
<path fill-rule="evenodd" clip-rule="evenodd" d="M581.008 765C581.718 774.219 590.694 781.509 601.662 781.509H790.717C801.685 781.509 810.661 774.219 811.371 765H581.008Z" fill="url(#paint2_linear_197_703)"/>
<defs>
<filter id="filter0_f_197_703" x="27.7578" y="757.757" width="1336.86" height="101.8" filterUnits="userSpaceOnUse" color-interpolation-filters="sRGB">
<feFlood flood-opacity="0" result="BackgroundImageFix"/>
<feBlend mode="normal" in="SourceGraphic" in2="BackgroundImageFix" result="shape"/>
<feGaussianBlur stdDeviation="22" result="effect1_foregroundBlur_197_703"/>
</filter>
<linearGradient id="paint0_linear_197_703" x1="-2.68336e-10" y1="775.613" x2="1391" y2="775.613" gradientUnits="userSpaceOnUse">
<stop stop-color="#0D1012"/>
<stop offset="0.0295345" stop-color="#CAD4DB"/>
<stop offset="0.0625" stop-color="#242729"/>
<stop offset="0.133609" stop-color="#A3ACB1"/>
<stop offset="0.865967" stop-color="#A3ACB1"/>
<stop offset="0.941937" stop-color="#242729"/>
<stop offset="0.971275" stop-color="#CAD4DB"/>
<stop offset="0.996436" stop-color="#0D1012"/>
</linearGradient>
<linearGradient id="paint1_linear_197_703" x1="695.5" y1="786.226" x2="695.5" y2="800.377" gradientUnits="userSpaceOnUse">
<stop stop-color="#7A7F83"/>
<stop offset="1" stop-color="#0B0B0E"/>
</linearGradient>
<linearGradient id="paint2_linear_197_703" x1="603.732" y1="775.023" x2="792.787" y2="775.023" gradientUnits="userSpaceOnUse">
<stop stop-color="#3C3C3C"/>
<stop offset="0.317518" stop-color="#3C3C3C" stop-opacity="0"/>
<stop offset="0.660584" stop-color="#3C3C3C" stop-opacity="0"/>
<stop offset="1" stop-color="#444444"/>
</linearGradient>
</defs>
</svg>
