<svg width="116" height="105" viewBox="0 0 116 105" fill="none" xmlns="http://www.w3.org/2000/svg">
<path d="M52.6 74.861C52.6 74.861 70.0883 101 85 101C99.9117 101 112 89.2972 112 74.861C112 60.4249 99.9117 48.722 85 48.722C70.0883 48.722 52.6 74.861 52.6 74.861ZM52.6 74.861C52.6 74.861 37.5294 53.9498 25.6 53.9498C13.6706 53.9498 4 63.3121 4 74.861C4 86.41 13.6706 95.7722 25.6 95.7722C37.5294 95.7722 52.6 74.861 52.6 74.861Z" stroke="white" stroke-width="7" stroke-linejoin="round"/>
<path d="M20.5972 30.2177L16.3563 32.7817L12.9687 21.1332L18.4819 17.8L20.1749 25.9075L24.4158 23.3435L23.9866 37.2996L20.5972 30.2177Z" fill="white" stroke="#FFFDFD" stroke-width="2" stroke-linejoin="round"/>
<path d="M53.1973 27.6446L42.3043 27.8839L49.336 2.40687L63.497 2.09574L57.3567 19.1124L68.2497 18.873L51.4142 44.5655L53.1973 27.6446Z" fill="white" stroke="#FFFDFD" stroke-width="3" stroke-linejoin="round"/>
<path d="M86.703 30.1607L81.8365 29.0497L87.9974 18.5202L94.3238 19.9646L89.5677 26.8361L94.4342 27.9471L83.8935 37.4766L86.703 30.1607Z" fill="white" stroke="#FFFDFD" stroke-width="2" stroke-linejoin="round"/>
</svg>
