<svg width="109" height="99" viewBox="0 0 109 99" fill="none" xmlns="http://www.w3.org/2000/svg">
<path fill-rule="evenodd" clip-rule="evenodd" d="M76.015 8.78226C61.5621 8.78226 49.8457 20.0419 49.8457 33.9314C49.8457 47.821 61.5621 59.0806 76.015 59.0806C82.1927 59.0806 87.8739 57.0208 92.3494 53.581L103.036 63.8509C104.171 64.9422 106.013 64.9422 107.148 63.8509C108.284 62.7596 108.284 60.9904 107.148 59.8991L96.4615 49.6291C100.041 45.328 102.184 39.8683 102.184 33.9314C102.184 20.0419 90.4679 8.78226 76.015 8.78226ZM58.5688 33.9314C58.5688 24.6718 66.3797 17.1653 76.015 17.1653C85.6503 17.1653 93.4612 24.6718 93.4612 33.9314C93.4612 38.5621 91.5117 42.7498 88.3513 45.7869C85.191 48.824 80.8334 50.6976 76.015 50.6976C66.3797 50.6976 58.5688 43.1911 58.5688 33.9314Z" fill="white" stroke="black" stroke-width="2" stroke-linecap="round" stroke-linejoin="round"/>
<path d="M57.2529 0.578587C57.1907 0.448952 57.0557 0.365927 56.9071 0.365927C56.7586 0.365927 56.6236 0.448952 56.5614 0.578587L55.4689 2.85469L52.8788 3.14982C52.7313 3.16663 52.6074 3.26435 52.5615 3.40012C52.5156 3.5359 52.5561 3.68493 52.6651 3.78186L54.5801 5.48369L54.0717 7.9422C54.0428 8.08222 54.1012 8.22564 54.2214 8.30955C54.3416 8.39347 54.5016 8.40255 54.6312 8.33282L56.9071 7.10851L59.1831 8.33282C59.3127 8.40255 59.4727 8.39347 59.5929 8.30955C59.7131 8.22564 59.7715 8.08222 59.7425 7.9422L59.2342 5.48369L61.1491 3.78186C61.2582 3.68493 61.2987 3.5359 61.2527 3.40012C61.2068 3.26435 61.083 3.16663 60.9354 3.14982L58.3453 2.85469L57.2529 0.578587Z" fill="white"/>
<path d="M40.889 12.9752C40.7815 12.7513 40.5483 12.6079 40.2918 12.6079C40.0352 12.6079 39.802 12.7513 39.6945 12.9752L37.8076 16.9066L33.3338 17.4164C33.079 17.4454 32.865 17.6142 32.7857 17.8488C32.7064 18.0833 32.7763 18.3407 32.9647 18.5081L36.2723 21.4477L35.3943 25.6942C35.3443 25.936 35.4452 26.1837 35.6528 26.3287C35.8603 26.4736 36.1367 26.4893 36.3606 26.3689L40.2918 24.2541L44.2229 26.3689C44.4468 26.4893 44.7232 26.4736 44.9307 26.3287C45.1383 26.1837 45.2393 25.936 45.1892 25.6942L44.3112 21.4477L47.6188 18.5081C47.8072 18.3407 47.8771 18.0833 47.7978 17.8488C47.7185 17.6142 47.5045 17.4454 47.2497 17.4164L42.7759 16.9066L40.889 12.9752Z" fill="white"/>
<path fill-rule="evenodd" clip-rule="evenodd" d="M6.8839 40.1886C6.43312 40.7093 6.16156 41.3813 6.16156 42.115V78.0424C6.16156 83.003 10.2995 87.0243 15.4039 87.0243H58.5348C63.6392 87.0243 67.7771 83.003 67.7771 78.0424V54.2074C66.2137 54.7436 59.535 54.7338 59.535 45.8088C59.4522 45.0018 57.9947 44.2575 57.3852 43.7683C56.8555 43.3431 54.0935 38.9451 53.3535 38.9422C53.3535 38.9422 34.0724 38.9422 50.2121 38.9422L9.24242 39.1211C8.42403 39.1211 7.68007 39.4312 7.12838 39.9371C7.04222 40.0161 6.96056 40.1 6.8839 40.1886ZM12.3231 49.343V78.0424C12.3231 79.696 13.7024 81.0364 15.4039 81.0364H58.5348C60.2362 81.0364 61.6156 79.696 61.6156 78.0424V49.3431L39.1479 71.1776C37.9447 72.3468 35.9941 72.3468 34.791 71.1776L12.3231 49.343Z" fill="white"/>
</svg>
