<svg width="112" height="102" viewBox="0 0 112 102" fill="none" xmlns="http://www.w3.org/2000/svg">
<path d="M59.2543 16.5H17.3934C8.27441 16.5 3 25.503 3 34.3829L3.01276 81.8184C3.01276 90.6983 5.77004 99 14.889 99H72.6789C81.7978 99 89.1902 91.8014 89.1902 82.9215M39.6561 66.8431L31.4004 58.8039L17.4052 72.6218M39.6561 66.8485L64.4232 42.7254M13.2655 34.3829H17.3934M16.2248 85.2888H74.0147M13.2655 42.9222H17.3934M25.4576 42.9222H35.8357" stroke="white" stroke-width="4.5" stroke-linecap="round" stroke-linejoin="round"/>
<path d="M88.3795 23.111C87.812 25.2941 85.4653 26.6145 83.138 26.0601C80.8108 25.5058 79.3843 23.2867 79.9518 21.1036C80.5194 18.9205 82.8661 17.6001 85.1933 18.1544C87.5206 18.7088 88.9471 20.9279 88.3795 23.111Z" stroke="white" stroke-width="3.5" stroke-linejoin="round"/>
<path d="M73.4019 6.69703C70.9281 8.211 68.8947 10.2226 67.4118 12.5434L70.307 15.171C72.7207 17.3616 71.7318 21.1652 68.527 22.0175L64.6789 23.041C64.7664 24.3841 65.0133 25.7405 65.4316 27.0896C65.8499 28.4386 66.4176 29.7097 67.1128 30.8912L70.961 29.8678C74.1658 29.0154 77.1829 31.7537 76.3918 34.7966L75.4429 38.4466C78.0294 39.6852 80.9054 40.3911 83.8696 40.4588L84.8197 36.8042C85.6108 33.7613 89.6168 32.6959 92.0305 34.8865L94.9294 37.5175C97.4032 36.0035 99.4367 33.9919 100.92 31.6711L98.0243 29.0434C95.6106 26.8528 96.5994 23.0492 99.8042 22.1969L103.653 21.1734C103.565 19.8303 103.318 18.4739 102.9 17.1249C102.481 15.7758 101.914 14.5047 101.219 13.3232L97.3703 14.3466C94.1655 15.1989 91.1484 12.4607 91.9395 9.41778L92.8884 5.76786C90.3019 4.52927 87.4259 3.82337 84.4617 3.75564L83.5116 7.41029C82.7205 10.4532 78.7146 11.5186 76.3009 9.328L73.4019 6.69703Z" stroke="white" stroke-width="3.5" stroke-linejoin="round"/>
<path d="M99.3984 58.2383C99.5529 59.8758 98.2752 61.3245 96.5445 61.4741C94.8139 61.6237 93.2856 60.4176 93.1311 58.7801C92.9766 57.1427 94.2543 55.694 95.985 55.5443C97.7156 55.3947 99.2439 56.6009 99.3984 58.2383Z" stroke="white" stroke-width="3" stroke-linejoin="round"/>
<path d="M85.0653 50.3297C83.7488 51.9412 82.8574 53.7956 82.4197 55.7376L85.0547 56.8897C87.2514 57.8503 87.5206 60.7033 85.5392 62.025L83.16 63.6122C83.554 64.5197 84.0603 65.3999 84.6821 66.2359C85.3039 67.0718 86.0085 67.8197 86.7782 68.4766L89.1574 66.8894C91.1388 65.5676 93.8848 66.7683 94.1002 69.0507L94.3585 71.7884C96.4367 72.052 98.5807 71.8816 100.626 71.2502L100.368 68.509C100.152 66.2266 102.629 64.5744 104.826 65.535L107.464 66.6887C108.781 65.0772 109.672 63.2228 110.11 61.2808L107.475 60.1286C105.278 59.168 105.009 56.3151 106.99 54.9933L109.369 53.4061C108.975 52.4986 108.469 51.6184 107.847 50.7825C107.226 49.9465 106.521 49.1986 105.751 48.5417L103.372 50.1289C101.391 51.4507 98.6446 50.25 98.4293 47.9676L98.171 45.2299C96.0927 44.9663 93.9488 45.1368 91.9032 45.7682L92.1619 48.5094C92.3773 50.7918 89.9005 52.444 87.7037 51.4834L85.0653 50.3297Z" stroke="white" stroke-width="3" stroke-linejoin="round"/>
</svg>
