<svg width="101" height="101" viewBox="0 0 101 101" fill="none" xmlns="http://www.w3.org/2000/svg">
<path d="M59.9064 12.6146C54.8882 7.00903 46.1119 7.00904 41.0936 12.6146L38.1446 15.9087C37.2921 16.861 36.053 17.3743 34.7769 17.3037L30.3623 17.0596C22.8502 16.6443 16.6444 22.8501 17.0597 30.3623L17.3037 34.7769C17.3743 36.053 16.861 37.2921 15.9087 38.1446L12.6146 41.0936C7.00904 46.1119 7.00905 54.8882 12.6146 59.9064L15.9087 62.8554C16.861 63.7079 17.3743 64.947 17.3037 66.2232L17.0597 70.6377C16.6444 78.1499 22.8502 84.3557 30.3623 83.9404L34.7769 83.6963C36.053 83.6258 37.2921 84.139 38.1446 85.0913L41.0936 88.3854C46.1119 93.991 54.8882 93.991 59.9064 88.3854L62.8554 85.0913C63.7079 84.139 64.947 83.6258 66.2232 83.6963L70.6377 83.9404C78.1499 84.3557 84.3557 78.1499 83.9404 70.6377L83.6963 66.2232C83.6258 64.947 84.139 63.7079 85.0913 62.8554L88.3854 59.9064C93.991 54.8882 93.991 46.1118 88.3854 41.0936L85.0913 38.1446C84.139 37.2921 83.6258 36.053 83.6963 34.7769L83.9404 30.3623C84.3557 22.8501 78.1499 16.6443 70.6377 17.0596L66.2232 17.3037C64.947 17.3743 63.7079 16.861 62.8554 15.9087L59.9064 12.6146Z" fill="white"/>
<path fill-rule="evenodd" clip-rule="evenodd" d="M70.9408 40.2929C71.3313 40.6834 71.3313 41.3166 70.9408 41.7071L47.0322 65.6163C46.8447 65.8038 46.5903 65.9092 46.3251 65.9092C46.0599 65.9092 45.8055 65.8038 45.618 65.6163L34.2929 54.2906C33.9024 53.9 33.9024 53.2669 34.2929 52.8763C34.6834 52.4858 35.3166 52.4858 35.7071 52.8764L46.3251 63.495L69.5266 40.2929C69.9171 39.9024 70.5503 39.9024 70.9408 40.2929Z" fill="black"/>
<path d="M70.9408 41.7071L73.4157 44.1819L73.4157 44.1819L70.9408 41.7071ZM70.9408 40.2929L68.4659 42.7678L68.466 42.7678L70.9408 40.2929ZM47.0322 65.6163L49.5071 68.0911H49.5071L47.0322 65.6163ZM46.3251 65.9092L46.3251 62.4092L46.3251 65.9092ZM45.618 65.6163L43.1431 68.0911L43.1431 68.0911L45.618 65.6163ZM34.2929 54.2906L36.7678 51.8157L36.7678 51.8157L34.2929 54.2906ZM34.2929 52.8763L36.7677 55.3513L36.7677 55.3513L34.2929 52.8763ZM35.7071 52.8764L33.2322 55.3512L33.2322 55.3512L35.7071 52.8764ZM46.3251 63.495L43.8502 65.9698C44.5066 66.6262 45.3968 66.995 46.3251 66.995C47.2534 66.995 48.1436 66.6262 48.8 65.9698L46.3251 63.495ZM69.5266 40.2929L72.0015 42.7677L72.0015 42.7677L69.5266 40.2929ZM73.4157 44.1819C75.1731 42.4246 75.173 39.5753 73.4156 37.818L68.466 42.7678C67.4896 41.7915 67.4896 40.2086 68.4659 39.2323L73.4157 44.1819ZM49.5071 68.0911L73.4157 44.1819L68.4659 39.2323L44.5573 63.1415L49.5071 68.0911ZM46.3251 69.4092C47.5186 69.4092 48.6632 68.9351 49.5071 68.0911L44.5573 63.1415C45.0262 62.6726 45.6621 62.4092 46.3251 62.4092L46.3251 69.4092ZM43.1431 68.0911C43.987 68.9351 45.1316 69.4092 46.3251 69.4092L46.3251 62.4092C46.9882 62.4092 47.6241 62.6726 48.0929 63.1415L43.1431 68.0911ZM31.8179 56.7654L43.1431 68.0911L48.0929 63.1415L36.7678 51.8157L31.8179 56.7654ZM31.8181 50.4014C30.0607 52.1587 30.0606 55.008 31.8179 56.7654L36.7678 51.8157C37.7441 52.7921 37.7441 54.375 36.7677 55.3513L31.8181 50.4014ZM38.1821 50.4016C36.4248 48.6442 33.5755 48.6441 31.8181 50.4014L36.7677 55.3513C35.7914 56.3276 34.2085 56.3275 33.2322 55.3512L38.1821 50.4016ZM48.8001 61.0202L38.1821 50.4016L33.2322 55.3512L43.8502 65.9698L48.8001 61.0202ZM67.0517 37.8181L43.8502 61.0201L48.8 65.9698L72.0015 42.7677L67.0517 37.8181ZM73.4157 37.818C71.6583 36.0606 68.809 36.0607 67.0517 37.8181L72.0015 42.7677C71.0252 43.7441 69.4423 43.7441 68.4659 42.7678L73.4157 37.818Z" fill="black"/>
</svg>
