<svg width="1251" height="616" viewBox="0 0 1251 616" fill="none" xmlns="http://www.w3.org/2000/svg">
<g opacity="0.24">
<path d="M314.834 243.741V221.583C316.207 220.106 320.597 217.151 327.166 217.151C335.378 217.151 343.59 221.583 343.59 230.446C343.59 237.537 346.327 240.787 347.696 241.525H368.225C380.543 241.525 384.649 212.719 396.967 212.719C406.821 212.719 412.022 217.151 413.391 219.367V232.662C413.391 236.207 421.602 238.571 425.708 239.309H474.979C499.615 239.309 499.615 261.468 499.615 272.547C499.615 281.41 483.191 285.103 474.979 285.842H442.132C421.617 285.842 413.391 292.489 413.391 301.353C413.391 310.216 405.179 319.079 396.967 319.079C390.397 319.079 388.755 307.261 388.755 301.353C387.386 297.66 380.543 290.273 364.119 290.273C347.696 290.273 338.115 294.705 335.378 296.921C334.009 305.046 332.911 322.181 339.47 325.727C346.028 329.272 358.635 340.499 364.119 345.669C361.382 351.578 354.265 363.396 347.696 363.396C339.484 363.396 331.272 354.532 331.272 347.885C331.272 342.567 314.848 341.237 306.636 341.237H253.259C243.405 341.237 240.942 348.624 240.942 352.317V389.986C239.573 394.417 234.372 403.281 224.518 403.281C214.664 403.281 209.463 397.372 208.094 394.417V361.18C208.094 352.317 194.408 347.146 187.565 345.669H154.717C144.863 345.669 139.662 350.101 138.293 352.317V394.417C138.293 398.849 134.187 403.281 121.87 403.281C112.015 403.281 109.552 397.372 109.552 394.417V336.806C109.552 329.715 125.976 325.727 142.399 325.727H277.895C294.319 325.727 303.899 321.295 306.636 319.079V299.137C306.636 293.819 295.687 289.535 290.213 288.058H245.048C238.478 288.058 231.352 293.966 228.609 296.921C224.504 301.353 213.828 307.557 203.974 296.921C194.12 286.285 216.292 274.763 228.609 270.331H454.436C457.173 270.331 462.647 268.558 462.647 261.468C462.647 254.377 443.486 252.604 433.906 252.604H339.47C323.046 252.604 316.203 246.695 314.834 243.741Z" fill="#2295FF"/>
<path d="M294.319 119.655H232.73V132.95C232.73 132.95 232.73 137.381 218.359 137.381C203.988 137.381 203.988 132.95 203.988 132.95V98.4964C203.988 97.9441 204.43 97.4964 204.982 97.4964L286.107 97.4964H286.107C292.91 97.4964 302.531 97.4964 306.636 95.2806C310.742 93.0648 310.423 90.3928 310.742 88.6331C311.587 83.9884 311.089 76.9307 310.849 74.2281C310.796 73.6349 311.263 73.1223 311.858 73.1223H338.484C339.036 73.1223 339.484 73.57 339.484 74.1223V132.95C338.115 140.336 327.987 155.551 298.424 157.324C268.862 159.096 264.208 171.357 265.577 177.266H347.696C380.543 177.266 392.861 157.324 392.861 141.813C392.861 129.404 412.022 126.302 421.602 126.302H528.357C548.065 126.302 558.467 135.165 561.204 139.597V157.324C561.204 161.017 558.74 168.403 548.886 168.403C539.032 168.403 533.831 165.448 532.462 163.971C531.094 163.233 528.357 159.983 528.357 152.892C528.357 144.029 516.039 144.029 503.721 144.029C493.867 144.029 491.403 149.938 491.403 152.892V208.288C490.034 209.765 484.834 212.719 474.979 212.719C465.125 212.719 462.662 209.765 462.662 208.288V157.324C462.662 141.813 454.45 144.029 442.132 144.029C429.814 144.029 421.602 155.108 421.602 166.187C421.602 171.898 413.391 179.482 401.073 188.345C395.238 191.554 392.861 194.993 384.649 194.993H368.225H290.213C273.789 194.993 266.946 203.856 265.577 208.288V230.446C265.577 245.957 240.941 250.388 203.988 250.388C186.571 250.388 171.655 251.48 162.929 257.036C153.142 263.268 150.611 274.381 150.611 281.41C150.611 292.046 136.925 297.659 130.081 299.137H109.552C96.4128 299.137 87.6535 305.046 84.9162 308V319.079C83.5476 322.034 79.1679 327.942 72.5984 327.942C66.0289 327.942 61.6493 322.034 60.2806 319.079V301.353C60.2806 296.921 64.3866 288.058 84.9162 288.058C92.242 288.058 105.446 288.058 109.552 283.626C113.658 279.194 113.658 265.899 113.658 261.468C113.658 257.036 115.3 254.377 89.0221 252.604C62.7442 250.832 53.4374 240.048 52.0688 234.878V212.719C52.0688 202.083 41.1196 196.47 35.6451 194.993C30.1705 193.516 6.87685 197.349 2.79765 190.561C1.31362 188.092 -2.67693 183.914 2.79765 183.914H43.8569C63.5654 183.914 76.7044 194.254 80.8103 199.424V226.014C80.8103 231.332 94.4967 234.139 101.34 234.878H195.776C212.2 234.878 224.518 228.969 228.624 226.014C229.992 209.026 232.73 172.835 232.73 163.971C232.73 155.108 238.204 152.892 240.941 152.892C247.785 151.415 268.041 146.688 294.319 139.597C320.596 132.506 305.268 123.348 294.319 119.655Z" fill="#2295FF"/>
<path d="M503.721 310.216H552.992C557.098 310.216 565.31 313.318 565.31 316.863C565.31 320.409 559.835 322.772 557.098 323.511H524.251C514.396 323.511 506.458 327.942 503.721 330.158C479.085 344.192 425.708 374.918 409.285 385.554C392.861 396.19 380.543 398.849 376.437 398.849H298.425C290.213 398.849 282.001 396.633 282.001 389.986C282.001 384.668 292.95 383.338 298.425 383.338H351.802C364.941 383.338 373.7 378.906 376.437 376.691C405.179 361.18 465.125 328.386 474.979 321.295C484.834 314.204 498.246 310.954 503.721 310.216Z" fill="#2295FF"/>
<path d="M585.839 319.079C582.555 315.534 595.42 311.693 602.263 310.216H647.428C663.852 310.216 670.695 319.079 672.064 323.511V352.317C672.064 366.498 647.428 368.566 635.11 367.827H548.886C529.177 367.827 521.513 370.782 520.144 372.259C517.407 372.998 509.469 375.804 499.615 381.122C487.297 387.77 499.615 389.986 511.933 396.633C524.251 403.281 528.356 407.712 524.25 412.144C520.966 415.689 506.458 413.621 499.615 412.144L470.873 396.633C461.019 391.315 466.767 384.077 470.873 381.122L511.933 358.964C521.787 353.646 532.462 353.794 536.568 354.532H614.581C631.005 354.532 635.11 350.101 635.11 347.885V334.59C635.11 330.158 631.005 325.727 618.687 325.727C606.369 325.727 589.945 323.511 585.839 319.079Z" fill="#2295FF"/>
<path d="M101.34 434.302C94.7706 427.212 115.026 423.962 125.976 423.223C174.275 422.656 261.471 423.223 323.06 423.223C337.864 423.223 331.272 438.734 318.954 438.734C309.1 438.734 306.636 441.688 306.636 443.166V471.971C312.111 473.449 327.987 476.403 347.696 476.403C367.404 476.403 372.331 470.494 372.331 467.54V445.381C372.331 438.291 377.806 433.564 380.543 432.086C390.124 425.439 411.748 410.815 421.602 405.497C431.457 400.179 442.132 403.281 446.238 405.497L479.085 423.223C487.297 427.655 487.297 434.302 483.191 438.734C479.907 442.279 468.136 438.734 462.662 436.518C461.293 436.3 456.092 434.665 446.238 429.871C433.92 423.878 425.708 432.086 417.496 435.863C410.927 438.885 409.285 441.99 409.285 443.166V471.971C409.285 477.289 414.759 478.619 417.496 478.619H450.344C457.187 480.835 470.874 486.596 470.874 491.914C470.874 497.232 454.45 498.561 446.238 498.561H343.59C327.166 498.561 317.586 497.084 314.848 496.345C305.268 493.391 284.464 486.596 277.895 483.05C271.325 479.505 269.683 475.664 269.683 474.187V454.245C269.683 447.154 261.471 445.381 257.365 445.381H236.836C226.981 445.381 221.781 451.29 220.412 454.245V485.266C220.412 491.914 220.412 498.561 208.094 502.993C198.24 506.538 187.565 508.902 183.459 509.64H154.717C144.863 509.64 139.662 505.209 138.293 502.993C138.293 499.3 141.578 491.914 154.717 491.914C167.856 491.914 179.353 483.05 183.459 478.619V454.245C183.459 447.154 172.509 445.381 167.035 445.381H138.293C128.713 444.643 107.91 441.393 101.34 434.302Z" fill="#2295FF"/>
<path d="M298.425 534.014V516.288C302.531 511.856 302.531 509.64 314.849 509.64C324.703 509.64 332.641 517.026 335.378 520.719V538.446C335.378 545.537 327.166 551.741 323.06 553.957C313.48 557.65 291.034 565.479 277.895 567.252C261.472 569.468 269.683 580.547 277.895 584.978C284.465 588.524 302.531 589.41 310.743 589.41C316.217 588.671 327.166 585.865 327.166 580.547C327.166 573.899 331.272 569.468 339.484 576.115C346.054 581.433 347.696 587.194 347.696 589.41V609.353C347.696 614.671 342.221 616 339.484 616C336.747 616 331.272 615.114 331.272 611.568C331.272 608.023 323.06 607.137 318.955 607.137H277.895C265.577 607.137 257.366 604.921 245.048 600.489C235.194 596.944 229.993 593.103 228.624 591.626V565.036C228.624 556.173 245.048 551.741 261.472 549.525C274.611 547.753 291.582 538.446 298.425 534.014Z" fill="#2295FF"/>
<path d="M552.992 190.561C566.131 190.561 569.416 196.47 569.416 199.425V217.151C568.047 220.106 569.416 226.014 585.84 226.014C602.263 226.014 609.107 218.628 610.475 214.935V190.561C610.475 178.153 629.636 172.096 639.217 170.619H688.488C701.627 170.619 693.962 179.482 688.488 183.914C685.751 184.652 676.991 186.13 663.852 186.13C647.429 186.13 647.429 197.209 643.323 206.072C640.038 213.163 647.429 214.935 651.534 214.935C657.009 215.674 670.422 218.037 680.276 221.583C690.13 225.128 692.594 228.969 692.594 230.446V241.525C692.594 248.173 688.488 252.604 680.276 257.036C673.706 260.581 669.327 254.082 667.958 250.389C666.59 248.173 672.064 241.525 663.852 237.094C659.746 234.878 650.166 233.401 643.323 234.878C625.53 239.309 590.767 244.627 577.628 248.173C561.204 252.604 565.31 261.468 573.522 265.899C580.091 269.445 598.157 271.808 606.369 272.547C622.793 272.547 622.793 272.547 659.746 274.763C693.039 276.759 673.433 286.58 659.746 290.273H594.051C577.628 290.273 569.416 290.273 552.992 283.626C539.853 278.308 536.568 268.115 536.568 263.684V199.425C536.568 192.777 536.568 190.561 552.992 190.561Z" fill="#2295FF"/>
<path d="M388.755 84.2014V48.7482C388.755 45.0552 390.397 36.7827 396.967 33.2374C405.179 28.8058 413.391 31.0216 421.602 33.2374C428.172 35.0101 427.077 42.8393 425.708 46.5324V77.554C425.708 86.4173 438.026 88.6331 450.344 88.6331C460.198 88.6331 468.136 81.247 470.874 77.554V39.8849C470.874 35.4532 474.979 33.2374 487.297 33.2374C497.151 33.2374 502.352 45.0552 503.721 50.964V77.554C503.721 84.2014 511.933 86.4173 524.251 88.6331C536.568 90.8489 540.674 75.3381 540.674 66.4748C540.674 59.3842 546.149 54.6571 548.886 53.1799H565.31H622.793C639.217 53.1799 647.428 62.0432 651.534 66.4748C654.819 70.0201 636.479 72.3837 626.899 73.1223H602.263C581.734 73.1223 585.84 75.3381 577.628 79.7698C571.058 83.3151 580.365 85.6786 585.84 86.4173H610.475C626.899 86.4173 628.267 93.8034 626.899 97.4964V124.086C626.899 132.95 643.323 136.643 651.534 137.381H762.394C778.818 137.381 774.712 130.734 774.712 126.302C774.712 121.87 745.971 119.655 729.547 119.655C713.123 119.655 696.7 117.439 688.488 113.007C681.918 109.462 680.276 102.667 680.276 99.7122V31.0216C680.276 25.7036 669.327 21.4197 663.852 19.9424H639.217C626.078 19.9424 622.793 21.4197 622.793 22.1583C617.318 26.5899 603.906 36.3396 594.051 39.8849C581.734 44.3165 585.84 26.5899 585.84 19.9424C585.84 13.295 589.945 8.86331 598.157 4.43165C604.727 0.886331 614.581 0 618.687 0H663.852C684.382 0 688.488 0 696.7 4.43165C703.269 7.97698 707.649 16.2494 709.017 19.9424V46.5324C709.017 55.3957 722.704 59.0887 729.547 59.8273H787.03C799.348 59.8273 807.56 66.4748 807.56 70.9065C807.56 74.4518 796.611 76.8153 791.136 77.554C789.767 78.2926 780.461 79.3266 754.183 77.554C721.335 75.3381 721.335 84.2014 717.229 93.0647C713.944 100.155 724.072 103.405 729.547 104.144H762.394C787.03 104.144 791.136 104.144 803.454 113.007C813.308 120.098 815.771 124.825 815.771 126.302V159.54C815.771 163.233 812.487 172.835 799.348 181.698C786.209 190.561 780.187 185.391 778.818 181.698C776.081 178.743 771.427 171.505 774.712 166.187C777.997 160.869 765.132 156.585 758.289 155.108H643.323C618.687 155.108 618.687 150.676 606.369 146.245C596.515 142.699 594.051 138.859 594.051 137.381V113.007C594.051 105.917 583.102 104.144 577.628 104.144H458.556C444.869 104.144 415.033 103.701 405.179 101.928C395.324 100.155 390.124 89.3717 388.755 84.2014Z" fill="#2295FF"/>
<path d="M1037.49 35.4532C1037.49 28.3626 1051.18 25.1127 1058.02 24.3741C1066.23 24.3741 1078.55 17.7266 1074.45 13.2949C1070.34 8.86328 1053.92 8.86328 1029.28 8.86328C1004.64 8.86328 996.433 35.4532 996.433 42.1007C996.433 47.4187 988.221 48.7482 984.115 48.7482H943.055C916.777 48.7482 910.208 56.1343 910.208 59.8273V81.9856C910.208 89.0762 896.522 92.3261 889.678 93.0647H856.831C836.301 93.0647 828.089 104.144 836.301 108.575C842.871 112.121 852.725 113.007 856.831 113.007H885.572C901.996 113.007 906.102 118.916 906.102 121.87V139.597C906.102 141.813 901.996 148.46 893.784 148.46C885.572 148.46 860.937 150.676 848.619 157.324C838.765 162.642 852.725 168.403 860.937 170.619H910.208C926.632 170.619 930.738 166.187 934.844 163.971C938.128 162.199 941.687 154.369 943.055 150.676V99.7122C943.055 86.4172 947.161 84.2014 951.267 75.3381C954.552 68.2474 966.322 66.4748 971.797 66.4748H1058.02C1074.45 66.4748 1078.55 69.4292 1078.55 70.9064V81.9856C1078.55 84.2014 1123.72 93.0647 1131.93 97.4964C1138.5 101.042 1129.19 103.405 1123.72 104.144H1016.96C1000.54 104.144 990.958 111.53 988.221 115.223V155.108C988.221 162.199 1001.91 163.971 1008.75 163.971C1012.86 163.233 1021.07 158.21 1021.07 144.029C1021.07 126.302 1045.7 124.086 1058.02 124.086C1067.88 124.086 1073.08 128.518 1074.45 130.734V148.46C1074.45 153.778 1082.66 158.062 1086.76 159.54C1101.82 161.017 1135.21 163.971 1148.35 163.971C1161.49 163.971 1167.51 171.357 1168.88 175.05V201.64C1168.88 206.072 1172.99 210.504 1185.31 214.935C1195.16 218.481 1203.1 207.549 1205.83 201.64V159.54C1205.83 148.904 1186.67 144.767 1177.09 144.029H1123.72C1117.15 144.029 1112.77 138.12 1111.4 135.165V124.086C1111.4 122.314 1119.61 121.87 1123.72 121.87H1144.25C1147.53 121.87 1153.83 117.439 1156.56 115.223C1164.78 104.882 1181.2 82.8719 1181.2 77.5539C1181.2 72.2359 1192.15 69.4292 1197.62 68.6906H1222.26C1225 73.1223 1232.11 82.4287 1238.68 84.2014C1245.25 85.9741 1249.63 77.5539 1251 73.1223V57.6115C1251 55.3956 1242.79 44.3165 1234.58 37.669C1226.36 31.0216 1222.26 33.2374 1222.26 39.8849C1222.26 45.2028 1214.05 49.4868 1209.94 50.964H1197.62H1168.88C1156.56 50.964 1156.56 66.4748 1148.35 70.9064C1140.14 75.3381 1115.5 68.6906 1115.5 59.8273C1115.5 52.7367 1101.82 50.964 1094.97 50.964C1090.87 51.7026 1080.19 52.7367 1070.34 50.964C1058.02 48.7482 1037.49 44.3165 1037.49 35.4532Z" fill="#2295FF"/>
<path d="M585.839 489.698C595.694 479.062 609.106 476.403 614.581 476.403H663.852C680.276 476.403 689.856 485.266 692.594 489.698V502.993C692.594 508.311 703.543 514.072 709.017 516.288H737.759C750.077 516.288 758.288 496.345 758.288 491.914C758.288 487.482 758.288 485.266 770.606 485.266C780.46 485.266 785.661 492.652 787.03 496.345V516.288C787.03 525.151 778.818 525.151 770.606 531.798C764.037 537.116 754.182 536.969 750.077 536.23H684.382C674.527 536.23 666.589 528.844 663.852 525.151V511.856C663.852 500.777 656.973 496.345 631.005 496.345C618.687 496.345 617.318 498.561 614.581 502.993C610.475 509.64 600.621 524.708 594.051 531.798C591.116 534.966 577.628 534.014 573.522 525.151C569.416 516.288 573.522 502.993 585.839 489.698Z" fill="#2295FF"/>
<path d="M741.864 197.209H741.864H832.195H832.195C856.83 197.209 865.042 197.209 873.254 190.561C879.824 185.243 889.678 182.436 893.784 181.698H955.373C967.691 181.698 984.114 181.698 992.326 188.345C998.896 193.663 986.852 197.947 980.008 199.424C970.428 200.163 947.161 201.64 930.737 201.64C914.313 201.64 910.208 211.981 910.208 217.151C911.576 243.002 914.313 295.148 914.313 296.921C914.313 299.137 901.996 303.568 893.784 308C887.214 311.545 882.835 303.568 881.466 299.137V279.194C881.466 272.547 873.254 274.762 860.936 274.762C851.082 274.762 845.881 273.285 844.513 272.547C843.144 271.069 840.407 267.229 840.407 263.683C840.407 259.252 844.513 254.82 856.83 252.604C866.685 250.832 874.623 245.957 877.36 243.741V234.878L877.36 234.75C877.361 230.969 877.364 221.584 869.148 219.367C860.936 217.151 854.886 217.151 836.301 217.151C819.877 217.151 819.877 223.798 819.877 228.23V248.173C819.877 253.491 813.034 257.774 807.559 259.252C797.979 260.729 776.354 264.127 766.5 265.899C754.182 268.115 745.97 276.978 745.97 281.41C745.97 284.955 754.182 285.842 758.288 285.842H795.242C808.381 285.842 808.928 293.228 807.559 296.921C804.822 299.137 795.242 303.568 778.818 303.568C758.288 303.568 750.076 305.784 745.97 310.216C742.686 313.761 752.814 317.602 758.288 319.079H787.03C799.347 319.079 803.453 321.295 803.453 327.942C803.453 333.26 792.504 334.59 787.03 334.59H758.288C745.97 334.59 745.97 343.453 745.97 347.885C745.97 352.316 758.288 358.964 770.606 358.964C782.924 358.964 787.03 356.748 803.453 361.18C819.877 365.611 795.242 367.827 782.924 370.043C773.07 371.816 759.657 370.782 754.182 370.043C748.708 369.304 735.295 367.384 725.441 365.611C715.587 363.839 713.123 354.532 713.123 350.101V334.59V270.331C713.123 259.695 743.233 251.127 758.288 248.173C766.5 246.695 782.924 241.082 782.924 230.446C782.924 219.81 778.818 214.935 770.606 214.935H741.864C729.547 214.935 713.123 214.935 713.123 206.072C713.123 197.209 733.652 197.209 741.864 197.209Z" fill="#2295FF"/>
<path d="M438.026 514.072C451.165 514.072 450.344 520.719 450.344 522.935V531.23C450.344 533.992 452.582 536.23 455.343 536.23H466.768C479.907 536.23 491.403 524.412 495.509 518.504C500.984 498.561 512.754 456.904 516.039 449.813C519.324 442.722 533.831 440.95 540.674 440.95H581.734C594.873 440.95 598.157 436.518 598.157 434.302V425.439C598.157 422.484 597.336 415.689 594.051 412.144C589.946 407.712 581.734 412.144 573.522 407.712C565.31 403.281 573.522 401.065 581.734 396.633C588.303 393.088 600.895 392.201 606.369 392.201H733.653C750.077 392.201 758.289 389.986 770.606 394.417C780.461 397.963 782.924 401.803 782.924 403.281C782.924 408.451 783.745 419.678 787.03 423.223C790.315 426.768 804.822 427.655 811.666 427.655H865.043C877.361 427.655 889.678 429.871 889.678 436.518C889.678 441.836 884.204 444.643 881.466 445.381H815.772C802.633 445.381 793.873 446.859 791.136 447.597C785.661 450.552 773.07 456.904 766.501 458.676C759.931 460.449 755.551 454.983 754.183 452.029V434.302C754.183 428.984 745.971 423.223 741.865 421.007C739.128 419.53 731.19 416.132 721.335 414.36C711.481 412.587 709.017 418.053 709.017 421.007V447.597C709.017 449.813 700.806 456.46 688.488 456.46C678.634 456.46 676.17 449.074 676.17 445.381V423.223C676.17 419.678 667.958 415.837 663.852 414.36C661.115 413.621 653.177 411.701 643.323 409.928C633.468 408.155 628.268 410.667 626.899 412.144V440.95C626.899 443.166 626.078 448.483 622.793 452.029C619.508 455.574 613.213 456.46 610.475 456.46H569.416C552.992 456.46 546.149 462.369 544.78 465.324C536.568 487.482 519.324 533.571 516.039 540.662C512.754 547.753 503.197 560.549 492.248 562.765H406.81C390.386 562.765 370.157 551.581 366.051 547.149C362.766 543.604 370.963 538.446 376.437 536.23H396.967C406.821 536.23 412.022 533.276 413.391 531.799V520.719C413.391 516.288 421.602 514.072 438.026 514.072Z" fill="#2295FF"/>
<path d="M992.326 243.741C1001.83 241.177 1007.66 242.34 1012.86 243.741C1021.07 245.957 1026.82 261.468 1033.39 261.468C1041.6 261.468 1041.6 257.036 1041.6 252.604C1041.6 248.173 1041.6 239.309 1037.49 234.878C1034.21 231.332 1025.17 230.446 1021.07 230.446H971.797C952.088 230.446 944.424 237.832 943.055 241.525V276.978C943.055 283.626 951.267 288.058 955.373 292.489C958.658 296.035 970.428 296.921 975.903 296.921H1004.64C1016.96 296.921 1021.07 303.568 1021.07 310.216C1021.07 315.534 1010.12 318.341 1004.64 319.079H975.903H926.632H869.149C846.155 319.079 840.407 330.897 840.407 336.806V392.201C840.407 401.065 844.513 403.281 852.725 405.496C859.294 407.269 869.149 403.281 873.255 401.065C874.623 395.894 877.361 383.338 877.361 374.475C877.361 365.611 880.098 354.532 881.466 350.101C884.204 345.669 892.142 336.806 901.996 336.806C911.85 336.806 914.314 344.192 914.314 347.885V363.396C914.314 370.486 928 375.213 934.844 376.691H947.161C959.479 376.691 984.936 377.134 988.221 378.906C991.505 380.679 992.326 387.031 992.326 389.986C993.695 394.417 998.896 403.281 1008.75 403.281C1021.07 403.281 1021.07 394.417 1021.07 389.986C1021.07 385.554 1033.39 378.906 1049.81 378.906C1062.95 378.906 1063.5 392.201 1062.13 398.849C1062.13 403.281 1058.02 412.587 1041.6 414.36C1025.17 416.132 1023.81 422.484 1025.17 425.439C1030.65 426.177 1045.7 427.655 1062.13 427.655C1078.55 427.655 1088.13 420.269 1090.87 416.576V403.281C1090.87 397.372 1090.05 383.338 1086.76 374.475C1083.48 365.611 1066.23 364.873 1058.02 365.611H1008.75C975.903 365.611 951.267 354.532 951.267 347.885C951.267 342.567 962.216 338.283 967.691 336.806H1025.17C1038.31 336.806 1047.07 326.465 1049.81 321.295C1051.18 315.386 1053.09 301.353 1049.81 292.489C1045.7 281.41 1033.39 283.626 1008.75 281.41C989.042 279.637 980.009 270.331 980.009 261.468C980.009 252.604 982.826 246.305 992.326 243.741Z" fill="#2295FF"/>
<path d="M850.29 502.771C850.29 495.003 872.101 490.904 883.007 489.825C895.275 487.94 911.634 491.443 911.634 484.97C911.634 479.791 900.728 477.418 895.275 476.879H846.201C826.571 476.879 821.663 485.509 821.663 489.825V530.282C821.663 539.345 843.474 541.61 854.38 541.61H895.275C911.634 541.61 911.634 544.847 911.634 548.083C911.634 550.673 903.455 551.32 899.365 551.32H854.38C850.29 551.32 842.111 552.938 838.021 556.175C833.932 559.411 809.394 559.411 801.215 557.793C793.036 556.175 788.947 552.938 788.947 549.702C788.947 546.465 776.678 541.61 768.499 541.61C761.955 541.61 760.32 544.847 760.32 546.465V562.648C760.32 566.532 780.699 565.167 780.699 565.167H808.917H827.729H834.784H847.325H862.559H865.353C865.353 565.167 895.275 562.648 919.813 562.648C939.443 562.648 947.077 554.017 948.44 549.702C947.077 545.926 942.714 537.079 936.171 531.9C927.992 525.427 907.544 527.046 887.096 527.046C870.738 527.046 855.743 522.73 850.29 520.572V502.771Z" fill="#2295FF"/>
<path d="M910.208 407.712C910.208 404.167 926.632 403.281 934.843 403.281H975.903C985.757 403.281 988.22 409.19 988.22 412.144V418.791V438.734V456.461C988.22 460.006 1001.91 460.892 1008.75 460.892H1090.87C1103.19 460.892 1111.4 460.892 1115.5 465.324C1118.79 468.869 1119.61 475.664 1119.61 478.619V487.482V540.662C1119.61 553.071 1136.03 556.173 1144.25 556.173H1172.99C1178.46 555.434 1189.41 552.627 1189.41 547.309C1189.41 540.662 1193.52 527.367 1201.73 527.367C1209.94 527.367 1214.05 531.799 1222.26 536.23C1228.83 539.776 1230.47 545.094 1230.47 547.309C1229.1 554.696 1225.54 569.911 1222.26 571.684C1218.97 573.456 1207.2 575.377 1201.73 576.115H1136.03C1115.5 576.115 1103.19 571.684 1094.97 569.468C1088.41 567.695 1086.76 555.434 1086.76 549.525V505.209C1086.76 489.698 1062.13 480.835 1049.81 478.619C1037.49 476.403 1029.28 491.914 1029.28 498.561C1029.28 505.209 1025.17 511.856 1016.96 516.288C1010.39 519.833 995.064 519.242 988.22 518.504C973.165 517.765 940.592 516.288 930.737 516.288C920.883 516.288 912.945 508.902 910.208 505.209C910.208 502.993 912.671 497.232 922.526 491.914C932.38 486.596 940.318 489.698 943.055 491.914C947.161 496.345 958.658 505.209 971.797 505.209C984.936 505.209 993.695 500.777 996.432 498.561V485.266C996.432 480.835 996.432 476.403 984.115 476.403C974.26 476.403 960.848 466.062 955.373 460.892V427.655C955.373 418.791 941.687 415.098 934.843 414.36C926.632 413.621 910.208 411.258 910.208 407.712Z" fill="#2295FF"/>
</g>
</svg>
